<?xml version="1.0" encoding="utf-8"?>
<!-- Generator: Adobe Illustrator 23.0.1, SVG Export Plug-In . SVG Version: 6.00 Build 0)  -->
<svg version="1.1" id="Layer_1" xmlns="http://www.w3.org/2000/svg" xmlns:xlink="http://www.w3.org/1999/xlink" x="0px" y="0px"
	 viewBox="0 0 146.79 37.11" style="enable-background:new 0 0 146.79 37.11;" xml:space="preserve">
<style type="text/css">
	.st0{fill:#62CBC9;}
</style>
<g>
	<polygon class="st0" points="142.4,29.27 143.05,29.27 143.05,31.09 143.48,31.09 143.48,29.27 144.13,29.27 144.13,28.98 
		142.4,28.98 	"/>
	<path class="st0" d="M146.3,28.98c-0.24,0.52-0.62,1.33-0.72,1.61h-0.01c-0.08-0.27-0.43-1.09-0.65-1.61h-0.52v2.1h0.34v-1.64h0.01
		c0.22,0.59,0.45,1.12,0.67,1.64h0.23c0.24-0.53,0.48-1.05,0.71-1.64h0.01v1.64h0.42v-2.1H146.3z"/>
	<path class="st0" d="M32.67,8.82c-1.44-0.79-2.69-0.65-4-0.48c0.21-0.15,0.39-0.28,0.57-0.38c0.06-0.04,0.15-0.09,0.26-0.15
		c0.58-0.34,1.66-0.96,2.19-1.92c0-0.01,0-0.01,0-0.02c0-0.01-0.01-0.01-0.02-0.01c-1,0.07-1.89,0.52-2.76,0.96
		c-0.24,0.12-0.47,0.24-0.7,0.34c0.43-1.34,0.01-3.07-0.18-3.81l-0.02-0.1c-0.37-1.52-1.33-3.23-1.34-3.25C26.67,0,26.67,0,26.66,0
		c-0.01,0-0.01,0.01-0.01,0.01c0,0.01-0.4,1.46-1.18,2.46c-0.08,0.1-0.17,0.21-0.27,0.34c-0.42,0.53-1.07,1.34-1.46,1.96
		c-0.24,0.37-0.37,0.72-0.5,1.1C23.14,5.68,23.07,5.5,23,5.34c-0.03-0.08-0.07-0.2-0.11-0.33c-0.22-0.66-0.62-1.9-1.46-2.47
		c0,0-0.01,0-0.02,0c-0.01,0-0.01,0.01-0.01,0.01c-0.2,0.73,0.12,1.85,0.41,2.84c0.04,0.13,0.07,0.25,0.11,0.38
		c-0.08-0.04-0.15-0.08-0.23-0.13c-0.49-0.27-1-0.55-1.4-0.68c-0.5-0.16-1.04-0.17-1.56-0.18c-0.22,0-0.44-0.01-0.66-0.02
		c-0.61-0.04-1.65-0.3-2.01-0.86c0-0.01-0.01-0.01-0.02-0.01c-0.01,0-0.01,0.01-0.01,0.02c0.07,0.41,0.31,1.03,0.7,1.77l-0.14,0
		C9.09,5.88,2.5,10.87,0.57,17.84c-0.92,3.33-0.71,6.97,0.59,10.25c1.29,3.25,3.31,5.82,6.19,7.61c1.22,0.76,2.22,0.86,2.22,0.86
		s-0.87-0.44-1.74-1.03C2.47,31.9-0.06,24.98,1.69,18.66c1.86-6.7,8.15-11.45,15.29-11.54l0.58,0c0.47,0.75,0.97,1.47,1.33,1.9
		c0.04,0.05,0.08,0.09,0.13,0.13c-0.18,0.02-0.36,0.03-0.55,0.05c-1.07,0.08-2.28,0.18-3.19,0.51c-0.01,0-0.01,0.01-0.01,0.01
		c0,0.01,0,0.01,0.01,0.02c0.83,0.69,2.21,0.66,2.94,0.64c0.17,0,0.31-0.01,0.4,0c0.3,0.02,0.64,0.05,1.05,0.1
		c-0.07,0.04-0.14,0.07-0.22,0.1c-0.14,0.06-0.29,0.13-0.42,0.22c-0.62,0.43-1.01,1.1-1.39,1.74c-0.11,0.18-0.22,0.37-0.33,0.55
		c-0.02,0.03-0.05,0.08-0.09,0.14c-1.34,2.17-1.78,2.59-1.9,2.56c-0.01,0-0.02,0-0.02,0.01c0,0.01,0,0.02,0.01,0.02
		c1.09,0.25,3.07,0.33,4.17,0.03c0.44-0.12,1.16-0.52,2.15-1.19c-0.04,0.16-0.08,0.3-0.12,0.43l-0.03,0.1
		c-0.2,0.67-0.75,2.43-0.5,3.36c0,0.01,0.01,0.01,0.01,0.01c0.01,0,0.01,0,0.02-0.01c0.93-1.02,1.67-2.37,2.14-3.3
		c0.04-0.08,0.07-0.16,0.11-0.25c0.36,1.06,1.03,2.23,1.25,2.5c0.33,0.41,0.75,0.75,1.15,1.08c0.63,0.52,1.23,1.01,1.39,1.69
		c0,0.01,0.01,0.01,0.02,0.01c0.01,0,0.01,0,0.02-0.01c0.14-0.45,0.31-0.9,0.48-1.33c0.29-0.74,0.59-1.51,0.7-2.34
		c0.03-0.23-0.06-1.11-0.14-1.95c-0.02-0.18-0.04-0.36-0.05-0.53c2.87,3.51,3.99,8.38,2.85,12.42c-1.95,6.9-9.47,11.1-16.77,9.35
		c-3.09-0.74-5.72-2.46-7.59-4.97c-1.02-1.47-1.37-3.14-0.99-4.69c0.37-1.5,1.4-2.76,2.91-3.56c0.96-0.51,2.08-0.49,2.09-0.49
		c1.13,0,1.88,0.48,2.61,0.95c0.82,0.52,1.59,1.02,2.84,0.86c-1.33,0.78-2.39,0.17-3.51-0.47c-0.87-0.5-1.76-1.01-2.84-0.9
		c-0.01,0-0.02,0.01-0.02,0.02c0,0.01,0.01,0.02,0.01,0.02c0.56,0.09,1.02,0.48,1.56,0.93c0.61,0.51,1.31,1.1,2.33,1.41
		c1.46,0.45,2.91,0.42,4.07-0.08c0.94-0.4,1.79-0.93,2.47-1.35c0.25-0.16,0.49-0.3,0.7-0.42c0.01,0,0.01-0.01,0.01-0.02
		c0-0.01-0.01-0.01-0.02-0.01h0c-0.04,0-0.08,0-0.12,0c-1.1,0-2.25-0.2-3.16-0.56c-0.35-0.14-0.69-0.28-1.02-0.43
		c-1.03-0.44-2-0.85-3.13-1.02c-1.65-0.24-2.8,0-4.23,0.49C7.88,22.05,6.67,23,5.85,24.2C5,25.46,4.68,26.86,4.96,28.16
		c-0.18-0.4-0.33-0.79-0.46-1.18c-0.23-0.78-0.39-1.58-0.46-2.39C4.01,23.88,4.1,23.21,4.3,22.6c0.45-1.36,1.14-2.21,1.8-3.03
		c0.71-0.88,1.45-1.79,1.85-3.3c0.32,1.89-0.63,2.95-1.62,4.07c-0.7,0.79-1.43,1.6-1.77,2.76c0,0.01,0,0.02,0.01,0.02
		c0.01,0,0.02,0,0.02-0.01c0.43-0.7,1.21-1.25,2.02-1.84c0.64-0.46,1.3-0.94,1.81-1.5c0.72-0.8,1.14-1.81,1.29-3.09
		c0.13-1.18,0-2.43-0.13-3.38c0-0.01-0.01-0.01-0.01-0.01c-0.01,0-0.01,0-0.02,0.01c-0.75,0.9-1.77,1.76-2.75,2.58
		c-0.24,0.2-0.48,0.4-0.71,0.6c-0.01,0-0.01,0.01-0.01,0.01c-0.93,0.8-1.86,1.66-2.38,2.55c-0.78,1.34-0.98,3.23-0.58,5.44
		c0.37,2.04,1.22,4.2,2.39,6.07c0.13,0.22,0.28,0.43,0.43,0.65c0.01,0.01,0.01,0.02,0.02,0.03c0,0,0,0,0,0
		c0.93,1.32,2.12,2.46,3.54,3.4c1.44,0.96,3.05,1.65,4.78,2.07c1.16,0.28,2.34,0.42,3.52,0.42c2.52,0,5-0.63,7.24-1.87
		c3.27-1.81,5.61-4.71,6.58-8.16c0.59-2.09,0.61-4.48,0.06-6.89c-0.5-2.2-1.45-4.25-2.67-5.8c0.62,0.41,2.24,1.42,2.5,1.16
		c0.01-0.01,0.01-0.01,0-0.02c-0.39-0.78-1.17-1.54-1.86-2.2c-0.16-0.15-0.31-0.3-0.45-0.44c0.33-0.03,0.66-0.07,0.99-0.12
		c0.01,0,0.02-0.01,0.01-0.02l0,0l0.14-0.03c0.49,0.58,0.94,1.2,1.35,1.87c3.36,5.52,2.86,13.13-0.99,18.17
		c-0.62,0.82-1.29,1.49-1.29,1.49s0.88-0.39,1.77-1.47c2.12-2.56,3.23-5.6,3.49-9.08c0.27-3.52-0.56-7.05-2.32-9.95
		c-0.27-0.45-0.56-0.87-0.87-1.28c0.37-0.11,0.73-0.23,1.09-0.37c0.79-0.32,1.51-0.7,2.14-1.14c0.11-0.08,0.29-0.21,0.48-0.35
		c0.35-0.27,0.74-0.57,0.95-0.67c0.01,0,0.01-0.01,0.01-0.02c0-0.01-0.01-0.01-0.02-0.01C34.73,9.82,33.87,9.47,32.67,8.82z"/>
	<path class="st0" d="M54.19,22.75h3.96c-0.79-0.7-0.85-0.58-0.85-2.55V9.75c0-1.08,0.06-0.74,0.85-1.42h-3.96
		c0.78,0.68,0.85,0.33,0.85,1.42V20.2C55.04,22.18,54.97,22.05,54.19,22.75z"/>
	<path class="st0" d="M68.86,21.24h-4.21l8.05-12.9h-9.75l-1,2.4c1.21-0.66,1.79-0.92,3.09-0.92h3.98l-8.05,12.94h10.69l0.94-2.64
		C71.54,20.78,70.99,21.24,68.86,21.24z"/>
	<path class="st0" d="M103.11,20.41l-4.6-12.08h-3.43c0.34,0.26,0.51,0.51,0.51,0.87c0,0.28-0.08,0.66-0.25,1.06l-4.07,10.3
		c-0.4,1.02-0.81,1.74-1.44,2.19h3.4c-0.42-0.4-0.64-0.72-0.64-1.02c0-0.32,0.06-0.64,0.19-0.94l1.32-3.29h5.51l1.17,3.18
		c0.15,0.4,0.35,0.86,0.35,1.24c0,0.3-0.29,0.42-0.67,0.83h4.28C103.75,21.9,103.4,21.18,103.11,20.41z M94.67,16.02l2.29-5.68
		l2.12,5.68H94.67z"/>
	<path class="st0" d="M116.5,20.67l-3.74-5c1.85-0.76,3.23-1.85,3.23-3.68c0-2.08-1.81-3.66-4.77-3.66h-5
		c0.79,0.68,0.85,0.33,0.85,1.42v11.57c0,1.09-0.06,0.74-0.85,1.44h3.96c-0.79-0.7-0.85-0.28-0.85-2.55V9.69h1.57
		c1.68,0,2.77,1.07,2.77,2.49c0,1.6-1.19,2.53-3.7,3.09l4.3,6.01c0.7,0.98,1.79,1.47,2.81,1.47c1.02,0,1.37,0,1.37,0
		C117.61,22.01,116.92,21.25,116.5,20.67z"/>
	<path class="st0" d="M123.64,21.24V9.75c0-1.08,0.06-0.74,0.85-1.42h-3.96c0.79,0.68,0.85,0.33,0.85,1.42v11.57
		c0,1.09-0.06,0.74-0.85,1.44h8.76l0.96-2.64c-1.26,0.83-2.02,1.12-3.47,1.12H123.64z"/>
	<path class="st0" d="M48.38,21.24h-3.16V9.75c0-1.08,0.06-0.74,0.85-1.42h-3.96c0.79,0.68,0.85,0.33,0.85,1.42v11.57
		c0,1.09-0.06,0.74-0.85,1.44h8.76l0.96-2.64C50.59,20.95,49.83,21.24,48.38,21.24z"/>
	<path class="st0" d="M135.15,21.24v-5.19h4.2l0-1.57h-4.2V9.81c0,0,3.2,0,3.82,0c1.09,0,1.36,0.11,2.08,0.67V8.33h-9.03
		c0.79,0.68,0.85,0.33,0.85,1.42v11.57c0,1.09-0.06,0.74-0.85,1.44h8.76l-0.01-0.01l0.96-2.63c-1.09,0.72-1.62,1.04-3.2,1.12H135.15
		z"/>
	<path class="st0" d="M85.36,21.24h-3.39v-5.19h4.2l0-1.57h-4.2V9.81c0,0,3.2,0,3.82,0c1.09,0,1.36,0.11,2.08,0.67V8.33h-9.03
		c0.79,0.68,0.85,0.33,0.85,1.42v11.57c0,1.09-0.06,0.74-0.85,1.44h8.76l-0.01-0.01l0.96-2.63C87.47,20.84,86.94,21.15,85.36,21.24z
		"/>
	<polygon class="st0" points="47.39,33.44 42.94,28.78 42.94,34.72 43.58,34.72 43.58,30.33 48.02,34.98 48.02,29.02 47.39,29.02 	
		"/>
	<path class="st0" d="M50.94,34.72h0.7l0.69-1.62h2.44l0.67,1.62h0.7l-2.56-5.97L50.94,34.72z M52.59,32.51l0.98-2.28l0.95,2.28
		H52.59z"/>
	<polygon class="st0" points="57.93,29.61 59.3,29.61 59.3,34.72 59.93,34.72 59.93,29.61 61.33,29.61 61.33,29.02 57.93,29.02 	"/>
	<path class="st0" d="M67.66,32.42c0,0.45,0.02,0.94-0.28,1.31c-0.26,0.32-0.71,0.51-1.12,0.51c-0.42,0-0.9-0.19-1.15-0.54
		c-0.26-0.36-0.25-0.84-0.25-1.27v-3.4h-0.64v3.57c0,0.65,0.06,1.17,0.56,1.65c0.39,0.38,0.94,0.58,1.47,0.58
		c0.57,0,1.14-0.23,1.53-0.65c0.46-0.47,0.5-0.96,0.5-1.58v-3.57h-0.64V32.42z"/>
	<path class="st0" d="M74.6,30.59c0-1.28-1-1.57-2.09-1.57h-0.82v5.7h0.64v-2.5h0.16l1.72,2.5h0.78l-1.82-2.56
		C74.05,32.09,74.6,31.47,74.6,30.59z M72.33,31.66v-2.05h0.19c0.77,0,1.45,0.09,1.45,1.03c0,0.88-0.73,1.02-1.44,1.02H72.33z"/>
	<path class="st0" d="M77.53,34.72h0.69l0.69-1.62h2.43l0.67,1.62h0.7l-2.56-5.97L77.53,34.72z M79.16,32.51l0.98-2.28l0.95,2.28
		H79.16z"/>
	<polygon class="st0" points="85.86,29.02 85.22,29.02 85.22,34.72 87.43,34.72 87.43,34.13 85.86,34.13 	"/>
	<polygon class="st0" points="91.42,29.02 90.78,29.02 90.78,34.72 92.99,34.72 92.99,34.13 91.42,34.13 	"/>
	<polygon class="st0" points="97.3,31.56 95.85,29.02 95.11,29.02 96.98,32.27 96.98,34.72 97.62,34.72 97.62,32.27 99.48,29.02 
		98.75,29.02 	"/>
	<path class="st0" d="M106.25,34.72h0.69l0.69-1.62h2.43l0.67,1.62h0.7l-2.56-5.97L106.25,34.72z M107.89,32.51l0.98-2.28l0.95,2.28
		H107.89z"/>
	<path class="st0" d="M113.28,31.89c0,1.62,1.36,2.93,2.97,2.93c0.6,0,1.21-0.21,1.7-0.56v-0.79c-0.45,0.45-1.08,0.76-1.72,0.76
		c-1.28,0-2.31-1.1-2.31-2.36c0-1.26,1.03-2.36,2.3-2.36c0.66,0,1.29,0.29,1.74,0.76v-0.79c-0.51-0.38-1.07-0.56-1.7-0.56
		C114.62,28.92,113.28,30.26,113.28,31.89z"/>
	<polygon class="st0" points="120.38,29.61 121.76,29.61 121.76,34.72 122.39,34.72 122.39,29.61 123.78,29.61 123.78,29.02 
		120.38,29.02 	"/>
	<rect x="126.9" y="29.02" class="st0" width="0.64" height="5.7"/>
	<polygon class="st0" points="132.63,33.37 131.01,29.02 130.32,29.02 132.63,35.06 134.95,29.02 134.26,29.02 	"/>
	<polygon class="st0" points="137.84,34.72 140.79,34.72 140.79,34.13 138.47,34.13 138.47,31.89 140.72,31.89 140.72,31.3 
		138.47,31.3 138.47,29.61 140.79,29.61 140.79,29.02 137.84,29.02 	"/>
</g>
</svg>
